<svg width="56" height="56" viewBox="0 0 56 56" fill="none" xmlns="http://www.w3.org/2000/svg">
<circle cx="28" cy="28" r="27.5" stroke="#121243" stroke-opacity="0.1"/>
<circle cx="28" cy="28" r="24" fill="#1C2048" fill-opacity="0.1"/>
<path d="M12.424 46.2595C13.8698 45.1768 15.8862 44.3441 17.7999 43.5539C18.9904 43.0622 20.1412 42.5869 21.0901 42.0782C22.0043 41.5876 22.5739 40.6455 22.5748 39.6229V36.8148C22.5748 36.8148 20.5293 34.4089 19.7482 31.0661C19.1002 30.6544 18.6673 29.942 18.6673 29.1325V26.0592C18.6673 25.3832 18.9723 24.7791 19.4484 24.3562V19.9136C19.4484 19.9136 18.52 13 28.0445 13C37.569 13 36.6406 19.9136 36.6406 19.9136V24.3562C37.1159 24.7791 37.4218 25.3832 37.4218 26.0592V29.1325C37.4218 30.1656 36.7165 31.0349 35.759 31.3252C35.2256 32.9554 34.4559 34.5094 33.4385 35.9221C33.1819 36.2783 32.9421 36.5799 32.7323 36.8148V39.6939C32.7323 40.7539 33.3415 41.7228 34.306 42.1969C35.2925 42.6817 36.4821 43.1296 37.7157 43.5941C39.7745 44.3693 41.956 45.1907 43.5205 46.3068C39.336 49.8579 33.9181 52 28 52C22.0556 52 16.616 49.8389 12.424 46.2595Z" fill="white" fill-opacity="0.8"/>
</svg>
